HIERARCHY
ROOT Hips
{
	OFFSET	0.00	0.00	0.00
	CHANNELS 6 Xposition Yposition Zposition Zrotation Xrotation Yrotation
	JOINT LeftUpLeg
	{
		OFFSET	 0.126116	-0.014019	-0.065224
		CHANNELS 3 Zrotation Xrotation Yrotation
		JOINT LeftLeg
		{
			OFFSET	 0.000000	 0.000000	 0.569914
			CHANNELS 3 Zrotation Xrotation Yrotation
			JOINT LeftFoot
			{
				OFFSET	 0.000000	 0.000000	 0.544423
				CHANNELS 3 Zrotation Xrotation Yrotation
				JOINT LeftToeBase
				{
					OFFSET	 0.000000	 0.000000	 0.207117
					CHANNELS 3 Zrotation Xrotation Yrotation
					End Site
					{
						OFFSET	 0.000000	 0.000000	 0.207117
					}
				}
			}
		}
	}
	JOINT RightUpLeg
	{
		OFFSET	-0.124023	-0.008373	-0.065224
		CHANNELS 3 Zrotation Xrotation Yrotation
		JOINT RightLeg
		{
			OFFSET	 0.000000	 0.000000	 0.570047
			CHANNELS 3 Zrotation Xrotation Yrotation
			JOINT RightFoot
			{
				OFFSET	 0.000000	 0.000000	 0.544354
				CHANNELS 3 Zrotation Xrotation Yrotation
				JOINT RightToeBase
				{
					OFFSET	 0.000000	 0.000000	 0.207540
					CHANNELS 3 Zrotation Xrotation Yrotation
					End Site
					{
						OFFSET	 0.000000	 0.000000	 0.207540
					}
				}
			}
		}
	}
	JOINT Spine
	{
		OFFSET	 0.000184	-0.007763	 0.117403
		CHANNELS 3 Zrotation Xrotation Yrotation
		JOINT Spine1
		{
			OFFSET	 0.000000	 0.000000	 0.137269
			CHANNELS 3 Zrotation Xrotation Yrotation
			JOINT Spine2
			{
				OFFSET	 0.000000	 0.000000	 0.156879
				CHANNELS 3 Zrotation Xrotation Yrotation
				JOINT LeftShoulder
				{
					OFFSET	 0.080501	-0.002496	 0.160144
					CHANNELS 3 Zrotation Xrotation Yrotation
					JOINT LeftArm
					{
						OFFSET	 0.000000	 0.000000	 0.164363
						CHANNELS 3 Zrotation Xrotation Yrotation
						JOINT LeftForeArm
						{
							OFFSET	 0.000000	 0.000000	 0.364576
							CHANNELS 3 Zrotation Xrotation Yrotation
							JOINT LeftHand
							{
								OFFSET	 0.000000	 0.000000	 0.360812
								CHANNELS 3 Zrotation Xrotation Yrotation
								JOINT LeftHandIndex1
								{
									OFFSET	 0.000000	 0.000000	 0.086006
									CHANNELS 3 Zrotation Xrotation Yrotation
									JOINT LeftHandIndex2
									{
										OFFSET	 0.000000	 0.000000	 0.047236
										CHANNELS 3 Zrotation Xrotation Yrotation
										JOINT LeftHandIndex3
										{
											OFFSET	-0.004284	-0.000551	 0.038166
											CHANNELS 3 Zrotation Xrotation Yrotation
											End Site
											{
												OFFSET	-0.004284	-0.000551	 0.038166
											}
										}
									}
								}
							}
						}
					}
				}
				JOINT Neck
				{
					OFFSET	 0.000000	 0.000000	 0.176489
					CHANNELS 3 Zrotation Xrotation Yrotation
					JOINT Head
					{
						OFFSET	 0.000000	-0.001747	 0.077940
						CHANNELS 3 Zrotation Xrotation Yrotation
						End Site
						{
							OFFSET	 0.000000	-0.001747	 0.077940
						}
					}
				}
				JOINT RightShoulder
				{
					OFFSET	-0.080363	 0.000306	 0.159706
					CHANNELS 3 Zrotation Xrotation Yrotation
					JOINT RightArm
					{
						OFFSET	 0.000000	 0.000000	 0.164196
						CHANNELS 3 Zrotation Xrotation Yrotation
						JOINT RightForeArm
						{
							OFFSET	 0.000000	 0.000000	 0.365611
							CHANNELS 3 Zrotation Xrotation Yrotation
							JOINT RightHand
							{
								OFFSET	 0.000000	 0.000000	 0.360648
								CHANNELS 3 Zrotation Xrotation Yrotation
								JOINT RightHandIndex1
								{
									OFFSET	 0.000000	 0.000000	 0.069977
									CHANNELS 3 Zrotation Xrotation Yrotation
									JOINT RightHandIndex2
									{
										OFFSET	 0.000000	 0.000000	 0.052305
										CHANNELS 3 Zrotation Xrotation Yrotation
										JOINT RightHandIndex3
										{
											OFFSET	 0.009002	-0.000782	 0.042196
											CHANNELS 3 Zrotation Xrotation Yrotation
											End Site
											{
												OFFSET	 0.009002	-0.000782	 0.042196
											}
										}
									}
								}
							}
						}
					}
				}
			}
		}
	}
}
MOTION
Frames:    5
Frame Time: 0.03333334
-0.028087	 0.302474	 1.021439	 2.638880	 33.193510	-8.238658	 73.559900	-73.871640	-118.314200	 6.267399	-70.013310	 6.284702	 70.530170	 68.666560	-86.154080	-2.385833	 28.452760	 0.000004	 57.324600	-86.255760	-116.695400	-16.144400	-72.895840	-10.522800	-30.329280	 71.447450	 60.231300	 2.384659	 28.388700	-0.000001	-22.081150	 14.433380	 1.109392	-2.029487	 17.676470	 1.927581	-3.216847	 1.530742	 3.598787	-99.244950	 68.212150	 156.522600	 1.584563	-11.079900	-44.031310	 3.335350	-1.200537	-6.393831	-40.156250	-15.525700	-23.119680	-2.027600	 6.559038	 9.033609	-5.188889	 0.308190	 3.541030	-5.234859	 0.342567	 0.430617	 0.630960	 19.004250	-6.690196	-1.525358	-28.131850	-1.242738	 97.531940	 64.671810	-159.059600	-7.948524	 5.371391	 53.234300	-17.003910	-6.326600	 33.391920	 24.678210	-15.650980	 18.345340	 1.803333	 3.979147	-15.098590	 4.898592	 3.004813	-9.310344	 5.224449	 0.395017	 2.014677
-0.025150	 0.301110	 1.038619	 2.652829	 31.876620	-7.863611	 65.539310	-71.867770	-126.714000	 5.126340	-67.440150	 5.121083	 69.387150	 68.550430	-84.112250	-2.385832	 28.452790	-0.000001	 19.457070	-84.594670	-153.452300	-15.061670	-70.444710	-9.353868	-29.784920	 71.304700	 59.218290	 2.384659	 28.388700	-0.000001	-27.792970	 14.044510	 0.778627	-1.673328	 17.573470	 1.287671	-4.102266	 0.782241	 3.632354	-98.986150	 68.261440	 157.243000	 2.109446	-8.850644	-44.493690	 6.994770	-2.046050	-7.994897	-40.998270	-15.614550	-23.723850	-2.027600	 6.559038	 9.033609	-5.188889	 0.308190	 3.541030	-5.234859	 0.342567	 0.430617	-0.002783	 15.433760	-5.128540	-2.993696	-24.570000	-2.438152	 97.344440	 64.517040	-159.711800	-9.415248	 5.509689	 51.790660	-18.731790	-8.777296	 37.164170	 25.175630	-15.561460	 19.686160	 1.803333	 3.979147	-15.098590	 4.898592	 3.004813	-9.310344	 5.224449	 0.395017	 2.014677
-0.022156	 0.298544	 1.056838	 2.802887	 30.514470	-7.519008	 58.608460	-69.494910	-133.923400	 4.429352	-64.647930	 4.381114	 67.530330	 68.444690	-81.470030	-2.385832	 28.452790	-0.000001	 1.759890	-81.651660	-169.855400	-14.171230	-67.771650	-8.364112	-29.000460	 71.115750	 57.894260	 2.384659	 28.388700	-0.000001	-32.358300	 13.553150	 0.486943	-1.255108	 17.410250	 0.658642	-5.001053	-0.021216	 3.578279	-98.482290	 68.778390	 158.034900	 2.714253	-6.170525	-45.279030	 10.572320	-3.024588	-9.437125	-41.931080	-15.801960	-24.673330	-2.027600	 6.559038	 9.033609	-5.188889	 0.308190	 3.541030	-5.234859	 0.342567	 0.430617	-0.514256	 11.019520	-4.063713	-4.110627	-20.170550	-3.025741	 97.083980	 64.093860	-160.786400	-11.077110	 5.186770	 50.524830	-20.025480	-11.545600	 41.303760	 25.143820	-15.097270	 20.909580	 1.803333	 3.979147	-15.098590	 4.898592	 3.004813	-9.310344	 5.224449	 0.395017	 2.014677
-0.019129	 0.295328	 1.073940	 2.845307	 29.141690	-7.012538	 53.336350	-67.020450	-139.680400	 3.924348	-62.055520	 3.836364	 65.958070	 68.452160	-79.076230	-2.385833	 28.452760	 0.000004	-7.114006	-78.364620	-177.534000	-13.595300	-65.123250	-7.674897	-28.104600	 71.029610	 56.461570	 2.384659	 28.388700	-0.000001	-35.642560	 13.004690	 0.201954	-0.933707	 17.467190	 0.146389	-5.801591	-1.105398	 3.400683	-97.682750	 69.890950	 158.876400	 3.517210	-3.065354	-46.118530	 13.810110	-4.059469	-10.672230	-42.800400	-15.887850	-25.999810	-2.027600	 6.559038	 9.033609	-5.188889	 0.308190	 3.541030	-5.234859	 0.342567	 0.430617	-0.885139	 5.765136	-2.941763	-5.105364	-15.021390	-3.556388	 96.766070	 64.237480	-161.500800	-12.713230	 5.908740	 49.271610	-21.288350	-14.659880	 45.197090	 24.977530	-14.632350	 21.697060	 1.803333	 3.979147	-15.098590	 4.898592	 3.004813	-9.310344	 5.224449	 0.395017	 2.014677
-0.016338	 0.291594	 1.091195	 2.782560	 27.657150	-6.385694	 48.834220	-64.345520	-144.836700	 3.665646	-59.415430	 3.515808	 64.188510	 68.574760	-76.545200	-2.385833	 28.452760	 0.000004	-12.752660	-74.709950	 177.992400	-13.248060	-62.288400	-7.182828	-27.300660	 70.938750	 55.123520	 2.384659	 28.388700	-0.000001	-37.617790	 12.466000	-0.031454	-0.560036	 17.523330	-0.346024	-6.531244	-2.282841	 3.179642	-96.415050	 71.909390	 159.699200	 4.435580	 0.803336	-47.493290	 16.987150	-5.162658	-11.770690	-43.835010	-16.072020	-27.453300	-2.027600	 6.559038	 9.033609	-5.188889	 0.308190	 3.541030	-5.234859	 0.342567	 0.430617	-1.157719	-0.004669	-2.304211	-5.847513	-9.416546	-3.515124	 96.148670	 65.245080	-162.293600	-14.302580	 7.659395	 48.650570	-22.307260	-18.026940	 48.989140	 25.016070	-14.619130	 22.523730	 1.803333	 3.979147	-15.098590	 4.898592	 3.004813	-9.310344	 5.224449	 0.395017	 2.014677
